<?xml version="1.0" encoding="UTF-8"?> <svg xmlns="http://www.w3.org/2000/svg" width="1106" height="839" viewBox="0 0 1106 839" fill="none"><g clip-path="url(#clip0)"><path d="M394 -184C540 -126 610 222 394 332C178 442 46 304 -216 294" stroke="#101010" stroke-opacity="0.05"></path><path d="M475 -221C763 -59 777 415 489 533C201 651 125 335 -199 449" stroke="#101010" stroke-opacity="0.05"></path><path d="M638 -176C886 28 1028 508 690 666C352 824 172 488 -186 594" stroke="#101010" stroke-opacity="0.05"></path><path d="M916 -98C1270 334 1074 698 782 812C490 926 206 630 -118 744" stroke="#101010" stroke-opacity="0.05"></path><circle cx="73" cy="-47" r="276.5" stroke="#101010" stroke-opacity="0.05"></circle></g><defs><clipPath id="clip0"><rect width="1106" height="839" fill="white"></rect></clipPath></defs></svg> 